<?xml version="1.0" encoding="UTF-8"?>
<svg xmlns="http://www.w3.org/2000/svg" xmlns:xlink="http://www.w3.org/1999/xlink" width="725pt" height="363pt" viewBox="0 0 725 363" version="1.1">
<g id="surface1">
<path style=" stroke:none;fill-rule:evenodd;fill:rgb(27.539062%,26.585388%,25.65918%);fill-opacity:1;" d="M 81.65625 219.21875 L 81.65625 134.984375 C 81.804688 123.273438 86.175781 113.347656 94.769531 105.195312 C 103.367188 97.046875 113.441406 93.195312 125 93.640625 L 125 93.417969 C 129.144531 92.527344 131.222656 90.007812 131.222656 85.859375 C 131.222656 81.710938 129.144531 79.117188 125 78.078125 L 125 77.859375 C 109.882812 78.453125 96.476562 84.378906 84.769531 95.640625 C 72.914062 106.753906 66.46875 119.867188 65.429688 134.984375 L 57.871094 219.886719 L 57.871094 220.554688 C 57.132812 235.964844 61.800781 249.152344 71.875 260.117188 C 82.101562 270.933594 94.917969 276.34375 110.328125 276.34375 C 112.703125 276.34375 115.144531 276.378906 117.664062 276.453125 C 120.183594 276.527344 122.628906 276.492188 125 276.34375 L 125 276.121094 C 129.144531 275.234375 131.222656 272.710938 131.222656 268.5625 C 131.222656 264.414062 129.144531 261.824219 125 260.785156 L 125 260.5625 C 124.257812 260.265625 123.441406 260.265625 122.554688 260.5625 C 111.441406 260.414062 101.808594 256.265625 93.660156 248.117188 C 85.804688 240.113281 81.804688 230.480469 81.65625 219.21875 "/>
<path style=" stroke:none;fill-rule:evenodd;fill:rgb(27.539062%,26.585388%,25.65918%);fill-opacity:1;" d="M 595.761719 93.566406 C 591.761719 92.679688 589.464844 90.15625 588.871094 86.011719 C 588.425781 81.859375 590.28125 79.265625 594.429688 78.230469 L 594.429688 78.007812 C 596.800781 77.859375 599.210938 77.820312 601.652344 77.894531 C 604.097656 77.96875 606.503906 78.007812 608.875 78.007812 C 623.84375 78.007812 637.253906 83.488281 649.109375 94.453125 C 660.664062 105.570312 666.445312 118.90625 666.445312 134.460938 L 666.445312 219.367188 C 666.445312 234.78125 661.035156 247.894531 650.21875 258.710938 C 639.550781 269.824219 626.730469 275.75 611.765625 276.492188 L 611.765625 276.269531 C 607.765625 275.382812 605.46875 272.859375 604.875 268.710938 C 604.136719 264.5625 605.984375 261.972656 610.429688 260.933594 L 610.429688 260.710938 C 622.140625 261.15625 631.84375 257.304688 639.550781 249.15625 C 647.550781 241.003906 651.109375 231.074219 650.21875 219.367188 L 642.660156 135.132812 C 641.625 123.867188 636.734375 114.238281 627.992188 106.234375 C 619.398438 98.085938 609.394531 93.9375 597.984375 93.789062 C 597.242188 94.085938 596.503906 94.085938 595.761719 93.789062 L 595.761719 93.566406 "/>
<path style=" stroke:none;fill-rule:evenodd;fill:rgb(13.729858%,12.159729%,12.548828%);fill-opacity:1;" d="M 162.695312 31.660156 C 164.976562 33.628906 166.632812 36.464844 167.65625 40.160156 L 166.234375 62.125 L 169.070312 71.332031 L 171.902344 155.757812 L 174.734375 156.46875 L 184.65625 154.339844 L 202.488281 152.921875 L 215.238281 155.757812 L 224.453125 159.300781 L 240.035156 168.507812 L 257.753906 193.308594 L 256.339844 199.679688 L 252.082031 207.472656 L 244.996094 213.140625 L 203.902344 233.6875 L 175.449219 242.894531 L 175.449219 248.5625 L 171.902344 249.15625 L 174.734375 269.816406 L 167.65625 265.449219 L 163.402344 245.019531 C 162.226562 242.265625 159.855469 240.378906 156.3125 239.355469 L 151.355469 232.269531 L 159.855469 224.476562 L 155.609375 191.175781 L 151.355469 190.472656 L 149.9375 191.890625 L 142.265625 193.308594 L 135.769531 191.890625 L 138.011719 185.511719 L 154.195312 177.007812 L 154.195312 170.636719 L 152.066406 171.34375 L 153.480469 162.84375 L 152.777344 82.667969 L 157.738281 62.828125 L 159.855469 41.578125 Z M 181.113281 160.714844 C 175.917969 160.714844 173.085938 163.316406 172.613281 168.507812 L 196.816406 160.714844 Z M 195.285156 177.007812 L 174.734375 180.554688 L 173.320312 185.511719 L 174.734375 211.726562 C 175.523438 214.007812 177.179688 215.1875 179.695312 215.265625 L 186.78125 211.015625 L 204.613281 204.640625 L 225.867188 191.175781 L 222.324219 184.804688 L 216.652344 178.429688 Z M 244.289062 188.34375 L 243.578125 194.011719 L 245.707031 197.558594 L 242.164062 201.09375 L 241.460938 203.929688 L 243.578125 203.226562 L 249.25 196.140625 C 248.0625 193.382812 246.414062 190.785156 244.289062 188.34375 Z M 211.703125 214.558594 L 202.488281 220.230469 L 208.867188 217.394531 C 210.128906 216.84375 211.074219 215.898438 211.703125 214.558594 "/>
<path style=" stroke:none;fill-rule:evenodd;fill:rgb(1.44043%,60.20813%,85.971069%);fill-opacity:1;" d="M 333.207031 131.90625 L 342.535156 134.269531 L 358.828125 144.304688 L 362.730469 149.734375 L 354.105469 147.496094 L 347.144531 149.734375 L 354.105469 161.421875 L 352.578125 162.957031 L 348.675781 161.421875 L 342.535156 154.457031 L 348.675781 169.925781 L 344.785156 173.117188 L 338.644531 159.890625 L 331.671875 154.457031 L 322.347656 152.09375 L 311.484375 154.457031 L 303.6875 159.890625 L 297.429688 166.859375 L 288.925781 183.976562 L 288.925781 195.546875 L 291.996094 204.878906 L 305.222656 218.101562 L 313.726562 222.703125 L 323.878906 225.070312 L 335.570312 225.894531 L 345.601562 222.703125 L 358.828125 209.597656 L 363.433594 200.980469 L 367.335938 204.878906 L 372.058594 198.738281 L 368.871094 208.769531 L 364.265625 217.273438 L 366.628906 219.632812 L 376.664062 209.597656 L 375.828125 215.03125 L 372.058594 223.53125 L 358.011719 235.929688 L 350.214844 240.652344 L 343.246094 246.792969 L 333.917969 248.328125 L 308.289062 249.15625 L 287.390625 243.71875 L 279.597656 238.289062 L 268.027344 223.53125 L 261.765625 203.34375 L 264.835938 180.789062 L 268.738281 171.457031 L 278.886719 155.996094 L 285.859375 149.734375 L 302.15625 139.699219 L 322.347656 133.441406 Z M 288.925781 215.742188 L 295.894531 225.894531 L 309.945312 230.496094 L 298.253906 224.359375 C 294.949219 222.074219 291.84375 219.203125 288.925781 215.742188 "/>
<path style=" stroke:none;fill-rule:evenodd;fill:rgb(1.44043%,60.20813%,85.971069%);fill-opacity:1;" d="M 433.441406 130.726562 L 444.777344 132.734375 L 454.226562 136.75 L 461.65625 142.773438 L 468.394531 150.207031 L 472.40625 159.65625 L 475.125 170.398438 L 475.125 204.046875 L 478.425781 206.058594 L 485.15625 212.785156 L 483.152344 222.824219 L 475.710938 228.847656 L 473.117188 238.289062 L 473.117188 243.015625 L 479.726562 241.597656 L 495.902344 234.867188 L 486.460938 243.015625 L 476.421875 247.027344 C 473.671875 248.683594 471.65625 251.121094 470.398438 254.351562 L 462.253906 259.777344 L 457.640625 250.925781 L 447.488281 247.734375 L 412.535156 245.019531 L 399.074219 242.304688 L 390.453125 237.578125 L 380.300781 228.847656 L 380.300781 222.117188 C 381.082031 219.046875 382.898438 216.367188 385.730469 214.085938 L 403.214844 204.640625 L 434.730469 195.902344 L 454.226562 194.605469 L 454.226562 177.722656 L 451.507812 166.972656 L 446.191406 158.945312 L 440.171875 152.21875 L 426.703125 145.484375 L 420.683594 146.195312 L 411.238281 150.207031 L 403.796875 156.226562 L 391.039062 170.398438 L 385.730469 171.699219 L 384.316406 170.398438 L 391.75 159.65625 L 407.222656 144.1875 L 393.054688 152.21875 L 389.742188 151.507812 L 393.765625 146.898438 L 392.464844 145.484375 L 381.71875 152.21875 L 378.289062 160.949219 L 376.289062 154.222656 L 383.011719 146.898438 L 391.039062 142.179688 Z M 430.722656 138.753906 L 425.996094 140.761719 L 431.429688 140.761719 L 441.46875 142.773438 L 440.171875 140.761719 Z M 444.179688 148.203125 L 445.480469 149.496094 C 445.328125 149.105469 444.890625 148.671875 444.179688 148.203125 Z M 458.238281 149.496094 C 458.550781 150.757812 459.214844 151.902344 460.238281 152.921875 Z M 448.902344 152.21875 L 456.9375 164.96875 L 454.226562 156.9375 Z M 440.171875 207.355469 L 414.546875 213.378906 L 408.523438 218.101562 L 411.945312 220.105469 L 423.992188 223.53125 L 435.449219 224.121094 L 451.507812 222.117188 L 453.515625 208.65625 C 449.5 207.945312 445.050781 207.511719 440.171875 207.355469 Z M 401.789062 220.816406 L 398.488281 225.539062 L 403.214844 228.132812 L 416.554688 230.851562 L 410.527344 227.546875 C 407.226562 226.441406 404.3125 224.203125 401.789062 220.816406 Z M 451.507812 239.589844 L 443.472656 241.597656 L 448.199219 243.601562 L 456.226562 243.601562 L 451.507812 239.589844 "/>
<path style=" stroke:none;fill-rule:evenodd;fill:rgb(1.44043%,60.20813%,85.971069%);fill-opacity:1;" d="M 505.65625 131.90625 L 509.433594 136.980469 L 510.734375 143.476562 L 510.023438 151.152344 L 511.320312 164.613281 L 522.890625 152.453125 L 532.460938 145.367188 L 538.246094 144.066406 L 544.03125 147.253906 L 548.519531 151.742188 L 550.996094 156.9375 L 558.789062 181.261719 L 561.984375 176.066406 L 574.734375 164.613281 L 606.734375 151.742188 L 613.109375 157.527344 L 616.296875 162.015625 L 620.195312 174.765625 L 620.195312 203.574219 L 618.304688 216.449219 C 618.226562 220.542969 616.496094 224.398438 613.109375 228.015625 L 609.332031 231.203125 L 608.035156 237.578125 C 605.515625 239.078125 602.53125 239.941406 599.0625 240.179688 L 597.761719 235.691406 L 600.949219 183.742188 L 598.464844 169.691406 L 596.460938 168.394531 L 587.605469 171.578125 L 577.332031 177.953125 L 566.472656 190.820312 L 558.789062 207.472656 L 555.480469 236.875 L 552.296875 249.625 L 547.808594 252.222656 L 544.03125 246.554688 L 540.132812 244.667969 L 539.546875 236.875 L 542.730469 224.121094 L 543.324219 195.3125 L 540.84375 174.171875 L 538.246094 169.09375 L 533.164062 165.792969 L 527.382812 167.800781 L 518.40625 174.765625 L 514.507812 179.257812 L 512.03125 184.449219 L 515.21875 240.179688 L 513.917969 241.359375 L 510.023438 238.179688 L 508.132812 242.660156 L 503.644531 240.769531 L 501.167969 245.851562 L 501.757812 256.710938 L 500.453125 257.414062 L 496.683594 250.925781 L 494.671875 245.257812 L 491.484375 225.421875 L 489.589844 173.585938 L 491.484375 144.066406 L 494.078125 138.28125 L 495.382812 141.46875 L 495.382812 138.28125 L 498.570312 136.394531 L 501.167969 151.742188 L 501.757812 144.066406 C 501.914062 140.054688 503.210938 136 505.65625 131.90625 Z M 531.160156 153.636719 L 524.191406 162.609375 L 537.65625 158.828125 C 535.84375 156.9375 533.679688 155.207031 531.160156 153.636719 Z M 597.171875 161.304688 L 606.144531 163.316406 C 603.3125 162.367188 600.320312 161.699219 597.171875 161.304688 Z M 604.847656 170.28125 L 606.734375 177.363281 C 606.734375 175.160156 606.105469 172.796875 604.847656 170.28125 "/>
<path style=" stroke:none;fill-rule:nonzero;fill:rgb(1.44043%,60.20813%,85.971069%);fill-opacity:1;" d="M 128.117188 332.042969 L 128.117188 321.128906 C 127.511719 323.746094 125.738281 325.050781 122.792969 325.050781 C 117.921875 325.050781 115.496094 321.113281 115.496094 313.242188 C 115.496094 305.34375 117.894531 301.390625 122.703125 301.390625 C 125.457031 301.390625 127.320312 302.640625 128.289062 305.140625 L 128.371094 305.140625 L 128.371094 301.902344 L 130.675781 301.902344 L 130.675781 332.042969 Z M 118.222656 313.242188 C 118.222656 317.050781 118.734375 319.710938 119.757812 321.214844 C 120.496094 322.351562 121.632812 322.921875 123.171875 322.921875 C 124.703125 322.921875 125.855469 322.351562 126.625 321.214844 C 127.621094 319.710938 128.117188 317.050781 128.117188 313.242188 C 128.117188 309.492188 127.644531 306.933594 126.691406 305.566406 C 125.738281 304.203125 124.535156 303.519531 123.085938 303.519531 C 119.839844 303.519531 118.222656 306.761719 118.222656 313.242188 "/>
<path style=" stroke:none;fill-rule:nonzero;fill:rgb(13.729858%,12.159729%,12.548828%);fill-opacity:1;" d="M 356.441406 332.042969 L 356.441406 301.902344 L 358.746094 301.902344 L 358.746094 305.140625 L 358.832031 305.140625 C 359.800781 302.640625 361.660156 301.390625 364.414062 301.390625 C 369.226562 301.390625 371.625 305.34375 371.625 313.242188 C 371.625 321.113281 369.191406 325.050781 364.328125 325.050781 C 361.382812 325.050781 359.609375 323.746094 359 321.128906 L 359 332.042969 Z M 368.898438 313.242188 C 368.898438 306.761719 367.273438 303.519531 364.035156 303.519531 C 362.503906 303.519531 361.261719 304.261719 360.328125 305.738281 C 359.445312 307.105469 359 309.605469 359 313.242188 C 359 317.050781 359.5 319.710938 360.496094 321.214844 C 361.261719 322.351562 362.417969 322.921875 363.949219 322.921875 C 365.484375 322.921875 366.640625 322.351562 367.402344 321.214844 C 368.398438 319.710938 368.898438 317.050781 368.898438 313.242188 "/>
<path style=" stroke:none;fill-rule:nonzero;fill:rgb(13.729858%,12.159729%,12.548828%);fill-opacity:1;" d="M 375.378906 332.042969 L 375.378906 301.902344 L 377.683594 301.902344 L 377.683594 305.140625 L 377.769531 305.140625 C 378.730469 302.640625 380.597656 301.390625 383.351562 301.390625 C 388.160156 301.390625 390.5625 305.34375 390.5625 313.242188 C 390.5625 321.113281 388.121094 325.050781 383.257812 325.050781 C 380.3125 325.050781 378.539062 323.746094 377.9375 321.128906 L 377.9375 332.042969 Z M 387.835938 313.242188 C 387.835938 306.761719 386.210938 303.519531 382.96875 303.519531 C 381.433594 303.519531 380.195312 304.261719 379.261719 305.738281 C 378.375 307.105469 377.9375 309.605469 377.9375 313.242188 C 377.9375 317.050781 378.429688 319.710938 379.429688 321.214844 C 380.195312 322.351562 381.347656 322.921875 382.886719 322.921875 C 384.414062 322.921875 385.570312 322.351562 386.339844 321.214844 C 387.328125 319.710938 387.835938 317.050781 387.835938 313.242188 "/>
<path style=" stroke:none;fill-rule:nonzero;fill:rgb(1.44043%,60.20813%,85.971069%);fill-opacity:1;" d="M 62.441406 324.539062 L 62.441406 294.097656 L 65 294.097656 L 65 305.3125 C 65.601562 302.699219 67.375 301.390625 70.320312 301.390625 C 75.1875 301.390625 77.625 305.328125 77.625 313.199219 C 77.625 321.101562 75.203125 325.050781 70.375 325.050781 C 69.039062 325.050781 67.867188 324.667969 66.859375 323.902344 C 65.84375 323.132812 65.167969 322.097656 64.832031 320.789062 L 64.746094 320.789062 L 64.746094 324.539062 Z M 65 313.199219 C 65 317.039062 65.496094 319.710938 66.492188 321.214844 C 67.257812 322.351562 68.410156 322.921875 69.949219 322.921875 C 71.480469 322.921875 72.632812 322.351562 73.402344 321.214844 C 74.394531 319.679688 74.898438 317.007812 74.898438 313.199219 C 74.898438 309.390625 74.394531 306.734375 73.402344 305.226562 C 72.632812 304.089844 71.480469 303.519531 69.949219 303.519531 C 68.410156 303.519531 67.257812 304.089844 66.492188 305.226562 C 65.496094 306.734375 65 309.390625 65 313.199219 "/>
<path style=" stroke:none;fill-rule:nonzero;fill:rgb(1.44043%,60.20813%,85.971069%);fill-opacity:1;" d="M 83.722656 308.636719 L 81.164062 308.636719 C 81.164062 303.804688 83.492188 301.390625 88.15625 301.390625 C 92.421875 301.390625 94.550781 303.394531 94.550781 307.402344 L 94.550781 320.789062 C 94.550781 322.039062 94.992188 322.664062 95.878906 322.664062 L 96.597656 322.664062 L 96.597656 324.539062 C 96.144531 324.710938 95.746094 324.796875 95.40625 324.796875 C 94.300781 324.796875 93.503906 324.625 93.019531 324.28125 C 92.421875 323.859375 92.125 323.089844 92.125 321.984375 L 92.125 321.214844 L 92.035156 321.214844 C 91.152344 323.773438 89.207031 325.050781 86.195312 325.050781 C 82.355469 325.050781 80.433594 322.921875 80.433594 318.65625 C 80.433594 315.332031 81.957031 313.242188 85 312.390625 L 89.816406 311.027344 C 90.816406 310.742188 91.453125 310.328125 91.742188 309.789062 C 91.910156 309.390625 91.992188 308.609375 91.992188 307.445312 C 91.992188 304.828125 90.6875 303.519531 88.070312 303.519531 C 85.167969 303.519531 83.722656 305.226562 83.722656 308.636719 Z M 91.992188 316.523438 L 91.992188 311.75 L 91.910156 311.75 C 91.707031 312.320312 90.796875 312.816406 89.179688 313.242188 L 87.046875 313.796875 C 84.457031 314.480469 83.164062 316.042969 83.164062 318.488281 C 83.164062 319.820312 83.488281 320.894531 84.121094 321.703125 C 84.765625 322.515625 85.640625 322.921875 86.746094 322.921875 C 88.34375 322.921875 89.613281 322.351562 90.566406 321.214844 C 91.515625 320.078125 91.992188 318.515625 91.992188 316.523438 "/>
<path style=" stroke:none;fill-rule:nonzero;fill:rgb(1.44043%,60.20813%,85.971069%);fill-opacity:1;" d="M 106.960938 314.691406 L 103.378906 313.285156 C 100.480469 312.148438 99.035156 310.355469 99.035156 307.914062 C 99.035156 303.5625 101.273438 301.390625 105.765625 301.390625 C 109.921875 301.390625 111.992188 303.496094 111.992188 307.699219 L 111.992188 308.339844 L 109.4375 308.339844 L 109.4375 307.699219 C 109.4375 304.914062 108.203125 303.519531 105.730469 303.519531 C 102.96875 303.519531 101.59375 304.800781 101.59375 307.359375 C 101.59375 309.121094 102.609375 310.382812 104.660156 311.152344 L 108.371094 312.558594 C 111.1875 313.640625 112.589844 315.558594 112.589844 318.316406 C 112.589844 320.335938 112.023438 321.941406 110.886719 323.132812 C 109.664062 324.414062 107.902344 325.050781 105.597656 325.050781 C 103.207031 325.050781 101.476562 324.511719 100.398438 323.433594 C 99.230469 322.324219 98.644531 320.519531 98.644531 318.019531 L 98.644531 317.292969 L 101.210938 317.292969 L 101.210938 317.890625 C 101.210938 321.242188 102.65625 322.921875 105.554688 322.921875 C 106.921875 322.921875 108.007812 322.558594 108.820312 321.832031 C 109.628906 321.109375 110.03125 320.121094 110.03125 318.871094 C 110.03125 316.882812 109.011719 315.488281 106.960938 314.691406 "/>
<path style=" stroke:none;fill-rule:nonzero;fill:rgb(1.44043%,60.20813%,85.971069%);fill-opacity:1;" d="M 135.324219 319 L 135.324219 301.902344 L 137.882812 301.902344 L 137.882812 317.847656 C 137.882812 319.667969 138.195312 320.964844 138.820312 321.746094 C 139.445312 322.527344 140.441406 322.921875 141.808594 322.921875 C 143.253906 322.921875 144.441406 322.386719 145.363281 321.320312 C 146.289062 320.253906 146.753906 318.855469 146.753906 317.121094 L 146.753906 301.902344 L 149.308594 301.902344 L 149.308594 324.539062 L 147.007812 324.539062 L 147.007812 321.386719 L 146.925781 321.386719 C 145.671875 323.832031 143.742188 325.050781 141.121094 325.050781 C 137.253906 325.050781 135.324219 323.035156 135.324219 319 "/>
<path style=" stroke:none;fill-rule:nonzero;fill:rgb(1.44043%,60.20813%,85.971069%);fill-opacity:1;" d="M 165.644531 317.039062 L 168.203125 317.039062 C 167.996094 319.480469 167.261719 321.429688 165.980469 322.878906 C 164.703125 324.328125 163.011719 325.050781 160.910156 325.050781 C 155.851562 325.050781 153.320312 321.101562 153.320312 313.199219 C 153.320312 305.328125 155.910156 301.390625 161.097656 301.390625 C 163.589844 301.390625 165.429688 302.277344 166.605469 304.054688 C 167.785156 305.832031 168.371094 308.609375 168.371094 312.390625 L 168.371094 313.328125 L 156.046875 313.328125 L 156.046875 314.394531 C 156.046875 320.078125 157.652344 322.921875 160.863281 322.921875 C 163.621094 322.921875 165.214844 320.957031 165.644531 317.039062 Z M 156.046875 311.195312 L 165.644531 311.195312 C 165.613281 308.4375 165.203125 306.449219 164.414062 305.226562 C 163.648438 304.089844 162.457031 303.519531 160.847656 303.519531 C 159.230469 303.519531 158.054688 304.089844 157.320312 305.226562 C 156.5 306.449219 156.074219 308.4375 156.046875 311.195312 "/>
<path style=" stroke:none;fill-rule:nonzero;fill:rgb(13.729858%,12.159729%,12.548828%);fill-opacity:1;" d="M 193.703125 317.039062 L 196.261719 317.039062 C 196.0625 319.480469 195.328125 321.429688 194.066406 322.878906 C 192.796875 324.328125 191.128906 325.050781 189.054688 325.050781 C 183.992188 325.050781 181.464844 321.101562 181.464844 313.199219 C 181.464844 305.328125 184.066406 301.390625 189.269531 301.390625 C 193.675781 301.390625 196.003906 303.804688 196.261719 308.636719 L 193.703125 308.636719 C 193.417969 305.226562 191.941406 303.519531 189.269531 303.519531 C 187.671875 303.519531 186.480469 304.132812 185.683594 305.355469 C 184.6875 306.917969 184.1875 309.546875 184.1875 313.242188 C 184.1875 317.082031 184.703125 319.753906 185.730469 321.257812 C 186.441406 322.367188 187.53125 322.921875 189.011719 322.921875 C 191.714844 322.921875 193.273438 320.957031 193.703125 317.039062 "/>
<path style=" stroke:none;fill-rule:nonzero;fill:rgb(13.729858%,12.159729%,12.548828%);fill-opacity:1;" d="M 211.402344 317.039062 L 213.960938 317.039062 C 213.761719 319.480469 213.023438 321.429688 211.742188 322.878906 C 210.464844 324.328125 208.773438 325.050781 206.667969 325.050781 C 201.609375 325.050781 199.078125 321.101562 199.078125 313.199219 C 199.078125 305.328125 201.667969 301.390625 206.859375 301.390625 C 209.351562 301.390625 211.191406 302.277344 212.367188 304.054688 C 213.546875 305.832031 214.132812 308.609375 214.132812 312.390625 L 214.132812 313.328125 L 201.808594 313.328125 L 201.808594 314.394531 C 201.808594 320.078125 203.414062 322.921875 206.628906 322.921875 C 209.382812 322.921875 210.976562 320.957031 211.402344 317.039062 Z M 201.808594 311.195312 L 211.402344 311.195312 C 211.371094 308.4375 210.960938 306.449219 210.171875 305.226562 C 209.410156 304.089844 208.214844 303.519531 206.601562 303.519531 C 204.992188 303.519531 203.816406 304.089844 203.078125 305.226562 C 202.257812 306.449219 201.835938 308.4375 201.808594 311.195312 "/>
<path style=" stroke:none;fill-rule:nonzero;fill:rgb(13.729858%,12.159729%,12.548828%);fill-opacity:1;" d="M 218.1875 324.539062 L 218.1875 301.902344 L 220.484375 301.902344 L 220.484375 305.058594 L 220.570312 305.058594 C 221.824219 302.613281 223.753906 301.390625 226.371094 301.390625 C 230.242188 301.390625 232.171875 303.410156 232.171875 307.445312 L 232.171875 324.539062 L 229.613281 324.539062 L 229.613281 308.167969 C 229.613281 305.070312 228.316406 303.519531 225.730469 303.519531 C 224.226562 303.519531 223.011719 304.054688 222.105469 305.121094 C 221.191406 306.1875 220.746094 307.585938 220.746094 309.320312 L 220.746094 324.539062 L 218.1875 324.539062 "/>
<path style=" stroke:none;fill-rule:nonzero;fill:rgb(13.729858%,12.159729%,12.548828%);fill-opacity:1;" d="M 238.054688 320.832031 L 238.054688 304.03125 L 234.941406 304.03125 L 234.941406 301.902344 L 238.054688 301.902344 L 238.054688 295.632812 L 240.613281 295.632812 L 240.613281 301.902344 L 244.617188 301.902344 L 244.617188 304.03125 L 240.613281 304.03125 L 240.613281 320.277344 C 240.613281 321.867188 241.425781 322.664062 243.039062 322.664062 C 243.554688 322.664062 244.082031 322.582031 244.617188 322.410156 L 244.617188 324.539062 C 244.339844 324.710938 243.742188 324.796875 242.832031 324.796875 C 241.066406 324.796875 239.828125 324.511719 239.121094 323.941406 C 238.410156 323.375 238.054688 322.335938 238.054688 320.832031 "/>
<path style=" stroke:none;fill-rule:nonzero;fill:rgb(13.729858%,12.159729%,12.548828%);fill-opacity:1;" d="M 258.785156 317.039062 L 261.34375 317.039062 C 261.136719 319.480469 260.398438 321.429688 259.121094 322.878906 C 257.839844 324.328125 256.152344 325.050781 254.050781 325.050781 C 248.988281 325.050781 246.460938 321.101562 246.460938 313.199219 C 246.460938 305.328125 249.050781 301.390625 254.238281 301.390625 C 256.730469 301.390625 258.570312 302.277344 259.746094 304.054688 C 260.921875 305.832031 261.511719 308.609375 261.511719 312.390625 L 261.511719 313.328125 L 249.183594 313.328125 L 249.183594 314.394531 C 249.183594 320.078125 250.789062 322.921875 254.003906 322.921875 C 256.761719 322.921875 258.355469 320.957031 258.785156 317.039062 Z M 249.183594 311.195312 L 258.785156 311.195312 C 258.753906 308.4375 258.339844 306.449219 257.550781 305.226562 C 256.785156 304.089844 255.597656 303.519531 253.984375 303.519531 C 252.367188 303.519531 251.191406 304.089844 250.460938 305.226562 C 249.636719 306.449219 249.214844 308.4375 249.183594 311.195312 "/>
<path style=" stroke:none;fill-rule:nonzero;fill:rgb(13.729858%,12.159729%,12.548828%);fill-opacity:1;" d="M 265.5625 324.539062 L 265.5625 301.902344 L 268.121094 301.902344 L 268.121094 305.441406 C 269.1875 302.738281 271.121094 301.390625 273.910156 301.390625 C 274.230469 301.390625 274.527344 301.433594 274.816406 301.515625 L 274.816406 304.078125 C 274.386719 303.992188 273.976562 303.949219 273.578125 303.949219 C 272.042969 303.949219 270.78125 304.472656 269.785156 305.527344 C 268.671875 306.691406 268.121094 308.3125 268.121094 310.382812 L 268.121094 324.539062 L 265.5625 324.539062 "/>
<path style=" stroke:none;fill-rule:nonzero;fill:rgb(13.729858%,12.159729%,12.548828%);fill-opacity:1;" d="M 288.59375 324.539062 L 288.59375 304.03125 L 285.480469 304.03125 L 285.480469 301.902344 L 288.59375 301.902344 L 288.59375 299.214844 C 288.59375 297.421875 288.878906 296.132812 289.449219 295.335938 C 290.183594 294.285156 291.546875 293.757812 293.539062 293.757812 C 294.164062 293.757812 294.703125 293.800781 295.160156 293.886719 L 295.160156 296.019531 C 294.789062 295.933594 294.378906 295.890625 293.921875 295.890625 C 292.960938 295.890625 292.253906 296.132812 291.808594 296.613281 C 291.371094 297.101562 291.152344 297.964844 291.152344 299.214844 L 291.152344 301.902344 L 295.160156 301.902344 L 295.160156 304.03125 L 291.152344 304.03125 L 291.152344 324.539062 L 288.59375 324.539062 "/>
<path style=" stroke:none;fill-rule:nonzero;fill:rgb(13.729858%,12.159729%,12.548828%);fill-opacity:1;" d="M 296.910156 313.199219 C 296.910156 305.328125 299.511719 301.390625 304.714844 301.390625 C 309.914062 301.390625 312.519531 305.328125 312.519531 313.199219 C 312.519531 321.101562 309.914062 325.050781 304.714844 325.050781 C 299.511719 325.050781 296.910156 321.101562 296.910156 313.199219 Z M 299.632812 313.199219 C 299.632812 319.679688 301.328125 322.921875 304.714844 322.921875 C 308.09375 322.921875 309.785156 319.679688 309.785156 313.199219 C 309.785156 306.75 308.09375 303.519531 304.714844 303.519531 C 301.328125 303.519531 299.632812 306.75 299.632812 313.199219 "/>
<path style=" stroke:none;fill-rule:nonzero;fill:rgb(13.729858%,12.159729%,12.548828%);fill-opacity:1;" d="M 316.273438 324.539062 L 316.273438 301.902344 L 318.832031 301.902344 L 318.832031 305.441406 C 319.894531 302.738281 321.824219 301.390625 324.621094 301.390625 C 324.933594 301.390625 325.238281 301.433594 325.527344 301.515625 L 325.527344 304.078125 C 325.097656 303.992188 324.6875 303.949219 324.285156 303.949219 C 322.753906 303.949219 321.488281 304.472656 320.492188 305.527344 C 319.382812 306.691406 318.832031 308.3125 318.832031 310.382812 L 318.832031 324.539062 L 316.273438 324.539062 "/>
<path style=" stroke:none;fill-rule:nonzero;fill:rgb(13.729858%,12.159729%,12.548828%);fill-opacity:1;" d="M 340.453125 308.636719 L 337.894531 308.636719 C 337.894531 303.804688 340.222656 301.390625 344.886719 301.390625 C 349.148438 301.390625 351.28125 303.394531 351.28125 307.402344 L 351.28125 320.789062 C 351.28125 322.039062 351.726562 322.664062 352.605469 322.664062 L 353.335938 322.664062 L 353.335938 324.539062 C 352.875 324.710938 352.476562 324.796875 352.136719 324.796875 C 351.027344 324.796875 350.234375 324.625 349.746094 324.28125 C 349.148438 323.859375 348.851562 323.089844 348.851562 321.984375 L 348.851562 321.214844 L 348.765625 321.214844 C 347.890625 323.773438 345.9375 325.050781 342.921875 325.050781 C 339.085938 325.050781 337.171875 322.921875 337.171875 318.65625 C 337.171875 315.332031 338.691406 313.242188 341.730469 312.390625 L 346.550781 311.027344 C 347.542969 310.742188 348.1875 310.328125 348.46875 309.789062 C 348.640625 309.390625 348.726562 308.609375 348.726562 307.445312 C 348.726562 304.828125 347.417969 303.519531 344.796875 303.519531 C 341.902344 303.519531 340.453125 305.226562 340.453125 308.636719 Z M 348.726562 316.523438 L 348.726562 311.75 L 348.640625 311.75 C 348.441406 312.320312 347.535156 312.816406 345.910156 313.242188 L 343.78125 313.796875 C 341.1875 314.480469 339.894531 316.042969 339.894531 318.488281 C 339.894531 319.820312 340.214844 320.894531 340.859375 321.703125 C 341.492188 322.515625 342.371094 322.921875 343.480469 322.921875 C 345.070312 322.921875 346.34375 322.351562 347.296875 321.214844 C 348.246094 320.078125 348.726562 318.515625 348.726562 316.523438 "/>
<path style=" stroke:none;fill-rule:nonzero;fill:rgb(13.729858%,12.159729%,12.548828%);fill-opacity:1;" d="M 394.738281 324.539062 L 394.738281 294.097656 L 397.296875 294.097656 L 397.296875 324.539062 L 394.738281 324.539062 "/>
<path style=" stroke:none;fill-rule:nonzero;fill:rgb(13.729858%,12.159729%,12.548828%);fill-opacity:1;" d="M 402.585938 298.449219 L 402.585938 294.097656 L 405.144531 294.097656 L 405.144531 298.449219 Z M 402.585938 324.539062 L 402.585938 301.902344 L 405.144531 301.902344 L 405.144531 324.539062 L 402.585938 324.539062 "/>
<path style=" stroke:none;fill-rule:nonzero;fill:rgb(13.729858%,12.159729%,12.548828%);fill-opacity:1;" d="M 421.644531 317.039062 L 424.203125 317.039062 C 424.007812 319.480469 423.269531 321.429688 421.988281 322.878906 C 420.710938 324.328125 419.015625 325.050781 416.910156 325.050781 C 411.847656 325.050781 409.320312 321.101562 409.320312 313.199219 C 409.320312 305.328125 411.914062 301.390625 417.105469 301.390625 C 419.601562 301.390625 421.433594 302.277344 422.609375 304.054688 C 423.789062 305.832031 424.375 308.609375 424.375 312.390625 L 424.375 313.328125 L 412.050781 313.328125 L 412.050781 314.394531 C 412.050781 320.078125 413.65625 322.921875 416.867188 322.921875 C 419.628906 322.921875 421.21875 320.957031 421.644531 317.039062 Z M 412.050781 311.195312 L 421.644531 311.195312 C 421.617188 308.4375 421.203125 306.449219 420.410156 305.226562 C 419.648438 304.089844 418.460938 303.519531 416.84375 303.519531 C 415.234375 303.519531 414.0625 304.089844 413.324219 305.226562 C 412.503906 306.449219 412.078125 308.4375 412.050781 311.195312 "/>
<path style=" stroke:none;fill-rule:nonzero;fill:rgb(13.729858%,12.159729%,12.548828%);fill-opacity:1;" d="M 440.410156 324.539062 L 440.410156 320.789062 L 440.328125 320.789062 C 439.980469 322.097656 439.308594 323.132812 438.300781 323.902344 C 437.292969 324.667969 436.117188 325.050781 434.78125 325.050781 C 429.945312 325.050781 427.53125 321.101562 427.53125 313.199219 C 427.53125 305.328125 429.964844 301.390625 434.828125 301.390625 C 437.777344 301.390625 439.550781 302.699219 440.15625 305.3125 L 440.15625 294.097656 L 442.714844 294.097656 L 442.714844 324.539062 Z M 430.261719 313.199219 C 430.261719 317.007812 430.769531 319.679688 431.792969 321.214844 C 432.53125 322.351562 433.671875 322.921875 435.207031 322.921875 C 436.742188 322.921875 437.890625 322.351562 438.660156 321.214844 C 439.65625 319.710938 440.15625 317.039062 440.15625 313.199219 C 440.15625 309.390625 439.65625 306.734375 438.660156 305.226562 C 437.890625 304.089844 436.742188 303.519531 435.207031 303.519531 C 433.671875 303.519531 432.53125 304.089844 431.792969 305.226562 C 430.769531 306.734375 430.261719 309.390625 430.261719 313.199219 "/>
<path style=" stroke:none;fill-rule:nonzero;fill:rgb(13.729858%,12.159729%,12.548828%);fill-opacity:1;" d="M 457.554688 324.539062 L 457.554688 301.601562 L 461.90625 301.601562 L 461.90625 304.289062 L 462.035156 304.289062 C 463.253906 302.101562 465.089844 301.007812 467.535156 301.007812 C 470.261719 301.007812 472.039062 302.171875 472.867188 304.5 C 474.257812 302.171875 476.191406 301.007812 478.664062 301.007812 C 482.390625 301.007812 484.25 303.039062 484.25 307.105469 L 484.25 324.539062 L 479.648438 324.539062 L 479.648438 308.808594 C 479.648438 306.050781 478.722656 304.671875 476.871094 304.671875 C 475.878906 304.671875 475.042969 305.042969 474.363281 305.78125 C 473.589844 306.605469 473.203125 307.730469 473.203125 309.152344 L 473.203125 324.539062 L 468.601562 324.539062 L 468.601562 308.808594 C 468.601562 306.050781 467.664062 304.671875 465.785156 304.671875 C 464.789062 304.671875 463.949219 305.042969 463.269531 305.78125 C 462.53125 306.605469 462.15625 307.730469 462.15625 309.152344 L 462.15625 324.539062 L 457.554688 324.539062 "/>
<path style=" stroke:none;fill-rule:nonzero;fill:rgb(13.729858%,12.159729%,12.548828%);fill-opacity:1;" d="M 503.949219 306.648438 L 503.949219 319.804688 C 503.949219 320.886719 504.351562 321.429688 505.148438 321.429688 C 505.492188 321.429688 505.746094 321.371094 505.917969 321.257812 L 505.917969 324.28125 C 505.121094 324.652344 504.367188 324.839844 503.652344 324.839844 C 501.183594 324.839844 499.890625 323.816406 499.777344 321.769531 L 499.691406 321.769531 C 498.464844 324.015625 496.5625 325.136719 493.976562 325.136719 C 489.992188 325.136719 488.003906 322.992188 488.003906 318.699219 C 488.003906 316.339844 488.496094 314.605469 489.496094 313.5 C 490.234375 312.675781 491.515625 312.007812 493.335938 311.492188 L 496.921875 310.511719 C 497.855469 310.257812 498.507812 309.960938 498.882812 309.621094 C 499.363281 309.191406 499.605469 308.511719 499.605469 307.574219 C 499.605469 305.296875 498.554688 304.160156 496.449219 304.160156 C 494.121094 304.160156 492.953125 305.625 492.953125 308.550781 L 488.601562 308.550781 C 488.601562 306.023438 489.183594 304.160156 490.347656 302.96875 C 491.628906 301.660156 493.730469 301.007812 496.660156 301.007812 C 498.851562 301.007812 500.570312 301.433594 501.824219 302.289062 C 503.242188 303.253906 503.949219 304.710938 503.949219 306.648438 Z M 499.605469 316.269531 L 499.605469 312.429688 C 499.152344 312.804688 498.3125 313.199219 497.089844 313.625 C 495.578125 314.136719 494.71875 314.449219 494.484375 314.5625 C 493.230469 315.160156 492.605469 316.394531 492.605469 318.273438 C 492.605469 319.296875 492.851562 320.105469 493.335938 320.703125 C 493.847656 321.386719 494.558594 321.726562 495.46875 321.726562 C 498.226562 321.726562 499.605469 319.910156 499.605469 316.269531 "/>
<path style=" stroke:none;fill-rule:nonzero;fill:rgb(13.729858%,12.159729%,12.548828%);fill-opacity:1;" d="M 506.597656 305.011719 L 506.597656 301.601562 L 509.753906 301.601562 L 509.753906 295.082031 L 514.363281 295.082031 L 514.363281 301.601562 L 518.117188 301.601562 L 518.117188 305.011719 L 514.363281 305.011719 L 514.363281 318.734375 C 514.363281 319.648438 514.511719 320.28125 514.8125 320.636719 C 515.109375 320.992188 515.652344 321.171875 516.449219 321.171875 C 517.136719 321.171875 517.6875 321.113281 518.117188 321.003906 L 518.117188 324.453125 C 517.144531 324.710938 515.914062 324.839844 514.398438 324.839844 C 512.730469 324.839844 511.5625 324.496094 510.90625 323.816406 C 510.136719 323.015625 509.753906 321.507812 509.753906 319.285156 L 509.753906 305.011719 L 506.597656 305.011719 "/>
<path style=" stroke:none;fill-rule:nonzero;fill:rgb(13.729858%,12.159729%,12.548828%);fill-opacity:1;" d="M 520.503906 324.539062 L 520.503906 294.097656 L 525.109375 294.097656 L 525.109375 304.078125 L 525.234375 304.160156 C 526.605469 302.058594 528.476562 301.007812 530.867188 301.007812 C 534.671875 301.007812 536.578125 303.082031 536.578125 307.230469 L 536.578125 324.539062 L 531.972656 324.539062 L 531.972656 308.808594 C 531.972656 307.328125 531.730469 306.269531 531.25 305.632812 C 530.769531 304.992188 529.941406 304.671875 528.773438 304.671875 C 527.78125 304.671875 526.941406 305.042969 526.257812 305.78125 C 525.492188 306.605469 525.109375 307.730469 525.109375 309.152344 L 525.109375 324.539062 L 520.503906 324.539062 "/>
<path style=" stroke:none;fill-rule:nonzero;fill:rgb(13.729858%,12.159729%,12.548828%);fill-opacity:1;" d="M 556.964844 313.667969 L 544.980469 313.667969 L 544.980469 314.992188 C 544.980469 319.652344 546.257812 321.984375 548.816406 321.984375 C 550.097656 321.984375 551.0625 321.414062 551.71875 320.277344 C 552.230469 319.367188 552.488281 318.230469 552.488281 316.867188 L 556.839844 316.867188 C 556.839844 319.398438 556.117188 321.40625 554.679688 322.902344 C 553.242188 324.390625 551.277344 325.136719 548.773438 325.136719 C 546.300781 325.136719 544.4375 324.511719 543.1875 323.261719 C 541.308594 321.414062 540.378906 318.132812 540.378906 313.414062 C 540.378906 305.140625 543.203125 301.007812 548.863281 301.007812 C 551.902344 301.007812 554.046875 301.914062 555.296875 303.734375 C 556.40625 305.296875 556.964844 307.800781 556.964844 311.238281 Z M 544.980469 310.511719 L 552.355469 310.511719 L 552.355469 309.277344 C 552.355469 305.867188 551.179688 304.160156 548.816406 304.160156 C 546.257812 304.160156 544.980469 306.121094 544.980469 310.042969 L 544.980469 310.511719 "/>
<path style=" stroke:none;fill-rule:nonzero;fill:rgb(13.729858%,12.159729%,12.548828%);fill-opacity:1;" d="M 560.972656 324.539062 L 560.972656 301.601562 L 565.324219 301.601562 L 565.324219 304.289062 L 565.453125 304.289062 C 566.671875 302.101562 568.507812 301.007812 570.949219 301.007812 C 573.683594 301.007812 575.457031 302.171875 576.28125 304.5 C 577.679688 302.171875 579.613281 301.007812 582.085938 301.007812 C 585.804688 301.007812 587.667969 303.039062 587.667969 307.105469 L 587.667969 324.539062 L 583.066406 324.539062 L 583.066406 308.808594 C 583.066406 306.050781 582.140625 304.671875 580.292969 304.671875 C 579.292969 304.671875 578.460938 305.042969 577.777344 305.78125 C 577.003906 306.605469 576.621094 307.730469 576.621094 309.152344 L 576.621094 324.539062 L 572.019531 324.539062 L 572.019531 308.808594 C 572.019531 306.050781 571.078125 304.671875 569.199219 304.671875 C 568.210938 304.671875 567.371094 305.042969 566.6875 305.78125 C 565.949219 306.605469 565.578125 307.730469 565.578125 309.152344 L 565.578125 324.539062 L 560.972656 324.539062 "/>
<path style=" stroke:none;fill-rule:nonzero;fill:rgb(13.729858%,12.159729%,12.548828%);fill-opacity:1;" d="M 607.371094 306.648438 L 607.371094 319.804688 C 607.371094 320.886719 607.773438 321.429688 608.566406 321.429688 C 608.90625 321.429688 609.164062 321.371094 609.332031 321.257812 L 609.332031 324.28125 C 608.539062 324.652344 607.78125 324.839844 607.070312 324.839844 C 604.597656 324.839844 603.304688 323.816406 603.191406 321.769531 L 603.101562 321.769531 C 601.878906 324.015625 599.976562 325.136719 597.390625 325.136719 C 593.410156 325.136719 591.421875 322.992188 591.421875 318.699219 C 591.421875 316.339844 591.917969 314.605469 592.917969 313.5 C 593.652344 312.675781 594.933594 312.007812 596.753906 311.492188 L 600.335938 310.511719 C 601.273438 310.257812 601.925781 309.960938 602.296875 309.621094 C 602.777344 309.191406 603.019531 308.511719 603.019531 307.574219 C 603.019531 305.296875 601.96875 304.160156 599.863281 304.160156 C 597.535156 304.160156 596.371094 305.625 596.371094 308.550781 L 592.019531 308.550781 C 592.019531 306.023438 592.597656 304.160156 593.765625 302.96875 C 595.046875 301.660156 597.148438 301.007812 600.078125 301.007812 C 602.269531 301.007812 603.992188 301.433594 605.242188 302.289062 C 606.660156 303.253906 607.371094 304.710938 607.371094 306.648438 Z M 603.019531 316.269531 L 603.019531 312.429688 C 602.566406 312.804688 601.726562 313.199219 600.507812 313.625 C 598.996094 314.136719 598.128906 314.449219 597.902344 314.5625 C 596.652344 315.160156 596.027344 316.394531 596.027344 318.273438 C 596.027344 319.296875 596.269531 320.105469 596.753906 320.703125 C 597.261719 321.386719 597.976562 321.726562 598.882812 321.726562 C 601.644531 321.726562 603.019531 319.910156 603.019531 316.269531 "/>
<path style=" stroke:none;fill-rule:nonzero;fill:rgb(13.729858%,12.159729%,12.548828%);fill-opacity:1;" d="M 610.011719 305.011719 L 610.011719 301.601562 L 613.167969 301.601562 L 613.167969 295.082031 L 617.777344 295.082031 L 617.777344 301.601562 L 621.53125 301.601562 L 621.53125 305.011719 L 617.777344 305.011719 L 617.777344 318.734375 C 617.777344 319.648438 617.925781 320.28125 618.226562 320.636719 C 618.523438 320.992188 619.070312 321.171875 619.863281 321.171875 C 620.550781 321.171875 621.105469 321.113281 621.53125 321.003906 L 621.53125 324.453125 C 620.5625 324.710938 619.328125 324.839844 617.820312 324.839844 C 616.144531 324.839844 614.976562 324.496094 614.320312 323.816406 C 613.550781 323.015625 613.167969 321.507812 613.167969 319.285156 L 613.167969 305.011719 L 610.011719 305.011719 "/>
<path style=" stroke:none;fill-rule:nonzero;fill:rgb(13.729858%,12.159729%,12.548828%);fill-opacity:1;" d="M 624.132812 298.40625 L 624.132812 293.800781 L 628.734375 293.800781 L 628.734375 298.40625 Z M 624.132812 324.539062 L 624.132812 301.601562 L 628.734375 301.601562 L 628.734375 324.539062 L 624.132812 324.539062 "/>
<path style=" stroke:none;fill-rule:nonzero;fill:rgb(13.729858%,12.159729%,12.548828%);fill-opacity:1;" d="M 644.5625 316.183594 L 648.910156 316.183594 C 648.738281 319.113281 648.101562 321.289062 646.988281 322.707031 C 645.726562 324.328125 643.746094 325.136719 641.039062 325.136719 C 637.902344 325.136719 635.652344 324.015625 634.289062 321.769531 C 633.089844 319.835938 632.488281 316.9375 632.488281 313.070312 C 632.488281 309.207031 633.085938 306.308594 634.28125 304.375 C 635.644531 302.15625 637.894531 301.035156 641.023438 301.007812 C 644.03125 300.976562 646.210938 301.984375 647.542969 304.03125 C 648.453125 305.425781 648.910156 307.160156 648.910156 309.234375 L 644.304688 309.234375 C 644.304688 305.996094 643.207031 304.390625 641.023438 304.417969 C 639.488281 304.445312 638.417969 305.253906 637.820312 306.847656 C 637.339844 308.125 637.097656 310.199219 637.097656 313.070312 C 637.097656 315.945312 637.339844 318.019531 637.828125 319.296875 C 638.425781 320.917969 639.5 321.726562 641.039062 321.726562 C 643.382812 321.753906 644.5625 319.910156 644.5625 316.183594 "/>
<path style=" stroke:none;fill-rule:nonzero;fill:rgb(13.729858%,12.159729%,12.548828%);fill-opacity:1;" d="M 666.5625 308.296875 L 662.21875 308.296875 L 662.21875 307.699219 C 662.21875 305.34375 661.203125 304.160156 659.183594 304.160156 C 656.996094 304.160156 655.90625 305.15625 655.90625 307.148438 C 655.90625 308.027344 656.128906 308.703125 656.589844 309.171875 C 657.039062 309.640625 657.894531 310.089844 659.144531 310.511719 L 662.085938 311.539062 C 663.824219 312.136719 665.085938 312.945312 665.882812 313.964844 C 666.679688 314.992188 667.074219 316.382812 667.074219 318.144531 C 667.074219 320.476562 666.28125 322.253906 664.6875 323.472656 C 663.261719 324.582031 661.320312 325.136719 658.847656 325.136719 C 656.089844 325.136719 654.113281 324.5 652.917969 323.21875 C 651.835938 322.113281 651.296875 320.378906 651.296875 318.019531 L 651.296875 317.164062 L 655.390625 317.164062 L 655.390625 317.890625 C 655.390625 320.617188 656.589844 321.984375 658.972656 321.984375 C 661.476562 321.984375 662.726562 320.859375 662.726562 318.617188 C 662.726562 316.964844 661.886719 315.84375 660.210938 315.246094 L 656.457031 313.925781 C 654.691406 313.300781 653.4375 312.488281 652.683594 311.492188 C 651.929688 310.5 651.554688 309.105469 651.554688 307.316406 C 651.554688 305.214844 652.246094 303.636719 653.640625 302.582031 C 655.035156 301.535156 656.949219 301.007812 659.398438 301.007812 C 664.179688 301.007812 666.5625 303.09375 666.5625 307.273438 L 666.5625 308.296875 "/>
</g>
</svg>
