<?xml version="1.0" encoding="UTF-8" standalone="no"?>
<svg
   width="397.28561pt"
   height="296.84793pt"
   viewBox="0 0 397.28562 296.84793"
   version="1.1"
   id="svg306"
   sodipodi:docname="npoints_gauss.svg"
   inkscape:version="1.1.2 (0a00cf5339, 2022-02-04)"
   xmlns:inkscape="http://www.inkscape.org/namespaces/inkscape"
   xmlns:sodipodi="http://sodipodi.sourceforge.net/DTD/sodipodi-0.dtd"
   xmlns:xlink="http://www.w3.org/1999/xlink"
   xmlns="http://www.w3.org/2000/svg"
   xmlns:svg="http://www.w3.org/2000/svg"
   xmlns:rdf="http://www.w3.org/1999/02/22-rdf-syntax-ns#"
   xmlns:cc="http://creativecommons.org/ns#"
   xmlns:dc="http://purl.org/dc/elements/1.1/">
  <sodipodi:namedview
     id="namedview308"
     pagecolor="#ffffff"
     bordercolor="#666666"
     borderopacity="1.0"
     inkscape:pageshadow="2"
     inkscape:pageopacity="0.0"
     inkscape:pagecheckerboard="0"
     inkscape:document-units="pt"
     showgrid="false"
     fit-margin-top="0"
     fit-margin-left="0"
     fit-margin-right="0"
     fit-margin-bottom="0"
     inkscape:zoom="1.3628472"
     inkscape:cx="275.893"
     inkscape:cy="175.00128"
     inkscape:window-width="1707"
     inkscape:window-height="892"
     inkscape:window-x="0"
     inkscape:window-y="0"
     inkscape:window-maximized="1"
     inkscape:current-layer="svg306" />
  <metadata
     id="metadata2">
    <rdf:RDF>
      <cc:Work>
        <dc:type
           rdf:resource="http://purl.org/dc/dcmitype/StillImage" />
        <dc:date>2024-05-17T13:24:47.281578</dc:date>
        <dc:format>image/svg+xml</dc:format>
        <dc:creator>
          <cc:Agent>
            <dc:title>Matplotlib v3.8.2, https://matplotlib.org/</dc:title>
          </cc:Agent>
        </dc:creator>
      </cc:Work>
    </rdf:RDF>
  </metadata>
  <defs
     id="defs6">
    <style
       type="text/css"
       id="style4">*{stroke-linejoin: round; stroke-linecap: butt}</style>
  </defs>
  <g
     id="axes_1"
     transform="translate(-17.834374,-41.072)">
    <g
       id="patch_2">
      <path
         d="M 57.6,307.584 H 414.72 V 41.472 H 57.6 Z"
         style="fill:#ffffff"
         id="path11" />
    </g>
    <g
       id="matplotlib.axis_1">
      <g
         id="xtick_1">
        <g
           id="line2d_1">
          <path
             d="M 109.90546,307.584 V 41.472"
             clip-path="url(#pa0e5cfde28)"
             style="fill:none;stroke:#b0b0b0;stroke-width:0.8;stroke-linecap:square"
             id="path14" />
        </g>
        <g
           id="line2d_2">
          <defs
             id="defs18">
            <path
               id="m14d1da8d29"
               d="M 0,0 V 3.5"
               style="stroke:#000000;stroke-width:0.8" />
          </defs>
          <g
             id="g22">
            <use
               xlink:href="#m14d1da8d29"
               x="109.90546"
               y="307.58401"
               style="stroke:#000000;stroke-width:0.8"
               id="use20"
               width="100%"
               height="100%" />
          </g>
        </g>
        <g
           id="text_1">
          <!-- 2 -->
          <g
             transform="matrix(0.1,0,0,-0.1,106.7242,322.18244)"
             id="g30">
            <defs
               id="defs26">
              <path
                 id="DejaVuSans-32"
                 d="M 1228,531 H 3431 V 0 H 469 v 531 q 359,372 979,998 621,627 780,809 303,340 423,576 121,236 121,464 0,372 -261,606 -261,235 -680,235 -297,0 -627,-103 -329,-103 -704,-313 v 638 q 381,153 712,231 332,78 607,78 725,0 1156,-363 431,-362 431,-968 0,-288 -108,-546 -107,-257 -392,-607 -78,-91 -497,-524 Q 1991,1309 1228,531 Z"
                 transform="scale(0.015625)" />
            </defs>
            <use
               xlink:href="#DejaVuSans-32"
               id="use28"
               x="0"
               y="0"
               width="100%"
               height="100%" />
          </g>
        </g>
      </g>
      <g
         id="xtick_2">
        <g
           id="line2d_3">
          <path
             d="M 182.05091,307.584 V 41.472"
             clip-path="url(#pa0e5cfde28)"
             style="fill:none;stroke:#b0b0b0;stroke-width:0.8;stroke-linecap:square"
             id="path34" />
        </g>
        <g
           id="line2d_4">
          <g
             id="g39">
            <use
               xlink:href="#m14d1da8d29"
               x="182.0509"
               y="307.58401"
               style="stroke:#000000;stroke-width:0.8"
               id="use37"
               width="100%"
               height="100%" />
          </g>
        </g>
        <g
           id="text_2">
          <!-- 4 -->
          <g
             transform="matrix(0.1,0,0,-0.1,178.86966,322.18244)"
             id="g47">
            <defs
               id="defs43">
              <path
                 id="DejaVuSans-34"
                 d="M 2419,4116 825,1625 h 1594 z m -166,550 h 794 V 1625 h 666 V 1100 H 3047 V 0 H 2419 V 1100 H 313 v 609 z"
                 transform="scale(0.015625)" />
            </defs>
            <use
               xlink:href="#DejaVuSans-34"
               id="use45"
               x="0"
               y="0"
               width="100%"
               height="100%" />
          </g>
        </g>
      </g>
      <g
         id="xtick_3">
        <g
           id="line2d_5">
          <path
             d="M 254.19636,307.584 V 41.472"
             clip-path="url(#pa0e5cfde28)"
             style="fill:none;stroke:#b0b0b0;stroke-width:0.8;stroke-linecap:square"
             id="path51" />
        </g>
        <g
           id="line2d_6">
          <g
             id="g56">
            <use
               xlink:href="#m14d1da8d29"
               x="254.19637"
               y="307.58401"
               style="stroke:#000000;stroke-width:0.8"
               id="use54"
               width="100%"
               height="100%" />
          </g>
        </g>
        <g
           id="text_3">
          <!-- 6 -->
          <g
             transform="matrix(0.1,0,0,-0.1,251.01511,322.18244)"
             id="g64">
            <defs
               id="defs60">
              <path
                 id="DejaVuSans-36"
                 d="m 2113,2584 q -425,0 -674,-291 -248,-290 -248,-796 0,-503 248,-796 249,-292 674,-292 425,0 673,292 248,293 248,796 0,506 -248,796 -248,291 -673,291 z m 1253,1979 v -575 q -238,112 -480,171 -242,60 -480,60 -625,0 -955,-422 -329,-422 -376,-1275 184,272 462,417 279,145 613,145 703,0 1111,-427 408,-426 408,-1160 0,-719 -425,-1154 -425,-434 -1131,-434 -810,0 -1238,620 -428,621 -428,1799 0,1106 525,1764 525,658 1409,658 238,0 480,-47 242,-47 505,-140 z"
                 transform="scale(0.015625)" />
            </defs>
            <use
               xlink:href="#DejaVuSans-36"
               id="use62"
               x="0"
               y="0"
               width="100%"
               height="100%" />
          </g>
        </g>
      </g>
      <g
         id="xtick_4">
        <g
           id="line2d_7">
          <path
             d="M 326.34182,307.584 V 41.472"
             clip-path="url(#pa0e5cfde28)"
             style="fill:none;stroke:#b0b0b0;stroke-width:0.8;stroke-linecap:square"
             id="path68" />
        </g>
        <g
           id="line2d_8">
          <g
             id="g73">
            <use
               xlink:href="#m14d1da8d29"
               x="326.34183"
               y="307.58401"
               style="stroke:#000000;stroke-width:0.8"
               id="use71"
               width="100%"
               height="100%" />
          </g>
        </g>
        <g
           id="text_4">
          <!-- 8 -->
          <g
             transform="matrix(0.1,0,0,-0.1,323.16057,322.18244)"
             id="g81">
            <defs
               id="defs77">
              <path
                 id="DejaVuSans-38"
                 d="m 2034,2216 q -450,0 -708,-241 -257,-241 -257,-662 0,-422 257,-663 258,-241 708,-241 450,0 709,242 260,243 260,662 0,421 -258,662 -257,241 -711,241 z m -631,268 q -406,100 -633,378 -226,279 -226,679 0,559 398,884 399,325 1092,325 697,0 1094,-325 397,-325 397,-884 0,-400 -227,-679 -226,-278 -629,-378 456,-106 710,-416 255,-309 255,-755 Q 3634,634 3220,271 2806,-91 2034,-91 1263,-91 848,271 434,634 434,1313 q 0,446 256,755 257,310 713,416 z m -231,997 q 0,-362 226,-565 227,-203 636,-203 407,0 636,203 230,203 230,565 0,363 -230,566 -229,203 -636,203 -409,0 -636,-203 -226,-203 -226,-566 z"
                 transform="scale(0.015625)" />
            </defs>
            <use
               xlink:href="#DejaVuSans-38"
               id="use79"
               x="0"
               y="0"
               width="100%"
               height="100%" />
          </g>
        </g>
      </g>
      <g
         id="xtick_5">
        <g
           id="line2d_9">
          <path
             d="M 398.48727,307.584 V 41.472"
             clip-path="url(#pa0e5cfde28)"
             style="fill:none;stroke:#b0b0b0;stroke-width:0.8;stroke-linecap:square"
             id="path85" />
        </g>
        <g
           id="line2d_10">
          <g
             id="g90">
            <use
               xlink:href="#m14d1da8d29"
               x="398.48727"
               y="307.58401"
               style="stroke:#000000;stroke-width:0.8"
               id="use88"
               width="100%"
               height="100%" />
          </g>
        </g>
        <g
           id="text_5">
          <!-- 10 -->
          <g
             transform="matrix(0.1,0,0,-0.1,392.12477,322.18244)"
             id="g101">
            <defs
               id="defs95">
              <path
                 id="DejaVuSans-31"
                 d="M 794,531 H 1825 V 4091 L 703,3866 v 575 l 1116,225 h 631 V 531 H 3481 V 0 H 794 Z"
                 transform="scale(0.015625)" />
              <path
                 id="DejaVuSans-30"
                 d="m 2034,4250 q -487,0 -733,-480 -245,-479 -245,-1442 0,-959 245,-1439 246,-480 733,-480 491,0 736,480 246,480 246,1439 0,963 -246,1442 -245,480 -736,480 z m 0,500 q 785,0 1199,-621 414,-620 414,-1801 0,-1178 -414,-1799 -414,-620 -1199,-620 -784,0 -1198,620 -414,621 -414,1799 0,1181 414,1801 414,621 1198,621 z"
                 transform="scale(0.015625)" />
            </defs>
            <use
               xlink:href="#DejaVuSans-31"
               id="use97"
               x="0"
               y="0"
               width="100%"
               height="100%" />
            <use
               xlink:href="#DejaVuSans-30"
               x="63.623047"
               id="use99"
               y="0"
               width="100%"
               height="100%" />
          </g>
        </g>
      </g>
      <g
         id="text_6">
        <!-- $p$ -->
        <g
           transform="matrix(0.1,0,0,-0.1,232.96,335.84025)"
           id="g110">
          <defs
             id="defs106">
            <path
               id="DejaVuSans-Oblique-70"
               d="m 3175,2156 q 0,460 -200,703 -200,244 -575,244 -256,0 -489,-131 -233,-131 -414,-381 -178,-247 -285,-597 -106,-350 -106,-694 0,-437 200,-673 200,-236 569,-236 272,0 505,128 233,128 398,372 178,256 287,603 110,347 110,662 z m -1781,813 q 231,303 545,459 314,156 699,156 537,0 834,-352 297,-351 297,-985 0,-519 -185,-989 Q 3400,788 3053,416 2822,169 2531,39 2241,-91 1919,-91 1547,-91 1294,64 1041,219 916,525 L 556,-1331 H -19 l 941,4831 h 575 z"
               transform="scale(0.015625)" />
          </defs>
          <use
             xlink:href="#DejaVuSans-Oblique-70"
             id="use108"
             x="0"
             y="0"
             width="100%"
             height="100%" />
        </g>
      </g>
    </g>
    <g
       id="matplotlib.axis_2">
      <g
         id="ytick_1">
        <g
           id="line2d_11">
          <path
             d="M 57.6,303.75877 H 414.72"
             clip-path="url(#pa0e5cfde28)"
             style="fill:none;stroke:#b0b0b0;stroke-width:0.8;stroke-linecap:square"
             id="path114" />
        </g>
        <g
           id="line2d_12">
          <defs
             id="defs118">
            <path
               id="m3aad12751d"
               d="M 0,0 H -3.5"
               style="stroke:#000000;stroke-width:0.8" />
          </defs>
          <g
             id="g122">
            <use
               xlink:href="#m3aad12751d"
               x="57.599998"
               y="303.75876"
               style="stroke:#000000;stroke-width:0.8"
               id="use120"
               width="100%"
               height="100%" />
          </g>
        </g>
        <g
           id="text_7">
          <!-- 0 -->
          <g
             transform="matrix(0.1,0,0,-0.1,44.2375,307.55799)"
             id="g127">
            <use
               xlink:href="#DejaVuSans-30"
               id="use125"
               x="0"
               y="0"
               width="100%"
               height="100%" />
          </g>
        </g>
      </g>
      <g
         id="ytick_2">
        <g
           id="line2d_13">
          <path
             d="M 57.6,262.40492 H 414.72"
             clip-path="url(#pa0e5cfde28)"
             style="fill:none;stroke:#b0b0b0;stroke-width:0.8;stroke-linecap:square"
             id="path131" />
        </g>
        <g
           id="line2d_14">
          <g
             id="g136">
            <use
               xlink:href="#m3aad12751d"
               x="57.599998"
               y="262.40494"
               style="stroke:#000000;stroke-width:0.8"
               id="use134"
               width="100%"
               height="100%" />
          </g>
        </g>
        <g
           id="text_8">
          <!-- 20 -->
          <g
             transform="matrix(0.1,0,0,-0.1,37.875,266.20414)"
             id="g143">
            <use
               xlink:href="#DejaVuSans-32"
               id="use139"
               x="0"
               y="0"
               width="100%"
               height="100%" />
            <use
               xlink:href="#DejaVuSans-30"
               x="63.623047"
               id="use141"
               y="0"
               width="100%"
               height="100%" />
          </g>
        </g>
      </g>
      <g
         id="ytick_3">
        <g
           id="line2d_15">
          <path
             d="M 57.6,221.05108 H 414.72"
             clip-path="url(#pa0e5cfde28)"
             style="fill:none;stroke:#b0b0b0;stroke-width:0.8;stroke-linecap:square"
             id="path147" />
        </g>
        <g
           id="line2d_16">
          <g
             id="g152">
            <use
               xlink:href="#m3aad12751d"
               x="57.599998"
               y="221.05107"
               style="stroke:#000000;stroke-width:0.8"
               id="use150"
               width="100%"
               height="100%" />
          </g>
        </g>
        <g
           id="text_9">
          <!-- 40 -->
          <g
             transform="matrix(0.1,0,0,-0.1,37.875,224.8503)"
             id="g159">
            <use
               xlink:href="#DejaVuSans-34"
               id="use155"
               x="0"
               y="0"
               width="100%"
               height="100%" />
            <use
               xlink:href="#DejaVuSans-30"
               x="63.623047"
               id="use157"
               y="0"
               width="100%"
               height="100%" />
          </g>
        </g>
      </g>
      <g
         id="ytick_4">
        <g
           id="line2d_17">
          <path
             d="M 57.6,179.69723 H 414.72"
             clip-path="url(#pa0e5cfde28)"
             style="fill:none;stroke:#b0b0b0;stroke-width:0.8;stroke-linecap:square"
             id="path163" />
        </g>
        <g
           id="line2d_18">
          <g
             id="g168">
            <use
               xlink:href="#m3aad12751d"
               x="57.599998"
               y="179.69724"
               style="stroke:#000000;stroke-width:0.8"
               id="use166"
               width="100%"
               height="100%" />
          </g>
        </g>
        <g
           id="text_10">
          <!-- 60 -->
          <g
             transform="matrix(0.1,0,0,-0.1,37.875,183.49645)"
             id="g175">
            <use
               xlink:href="#DejaVuSans-36"
               id="use171"
               x="0"
               y="0"
               width="100%"
               height="100%" />
            <use
               xlink:href="#DejaVuSans-30"
               x="63.623047"
               id="use173"
               y="0"
               width="100%"
               height="100%" />
          </g>
        </g>
      </g>
      <g
         id="ytick_5">
        <g
           id="line2d_19">
          <path
             d="M 57.6,138.34338 H 414.72"
             clip-path="url(#pa0e5cfde28)"
             style="fill:none;stroke:#b0b0b0;stroke-width:0.8;stroke-linecap:square"
             id="path179" />
        </g>
        <g
           id="line2d_20">
          <g
             id="g184">
            <use
               xlink:href="#m3aad12751d"
               x="57.599998"
               y="138.34338"
               style="stroke:#000000;stroke-width:0.8"
               id="use182"
               width="100%"
               height="100%" />
          </g>
        </g>
        <g
           id="text_11">
          <!-- 80 -->
          <g
             transform="matrix(0.1,0,0,-0.1,37.875,142.1426)"
             id="g191">
            <use
               xlink:href="#DejaVuSans-38"
               id="use187"
               x="0"
               y="0"
               width="100%"
               height="100%" />
            <use
               xlink:href="#DejaVuSans-30"
               x="63.623047"
               id="use189"
               y="0"
               width="100%"
               height="100%" />
          </g>
        </g>
      </g>
      <g
         id="ytick_6">
        <g
           id="line2d_21">
          <path
             d="M 57.6,96.989538 H 414.72"
             clip-path="url(#pa0e5cfde28)"
             style="fill:none;stroke:#b0b0b0;stroke-width:0.8;stroke-linecap:square"
             id="path195" />
        </g>
        <g
           id="line2d_22">
          <g
             id="g200">
            <use
               xlink:href="#m3aad12751d"
               x="57.599998"
               y="96.98954"
               style="stroke:#000000;stroke-width:0.8"
               id="use198"
               width="100%"
               height="100%" />
          </g>
        </g>
        <g
           id="text_12">
          <!-- 100 -->
          <g
             transform="matrix(0.1,0,0,-0.1,31.5125,100.78876)"
             id="g209">
            <use
               xlink:href="#DejaVuSans-31"
               id="use203"
               x="0"
               y="0"
               width="100%"
               height="100%" />
            <use
               xlink:href="#DejaVuSans-30"
               x="63.623047"
               id="use205"
               y="0"
               width="100%"
               height="100%" />
            <use
               xlink:href="#DejaVuSans-30"
               x="127.24609"
               id="use207"
               y="0"
               width="100%"
               height="100%" />
          </g>
        </g>
      </g>
      <g
         id="ytick_7">
        <g
           id="line2d_23">
          <path
             d="M 57.6,55.635692 H 414.72"
             clip-path="url(#pa0e5cfde28)"
             style="fill:none;stroke:#b0b0b0;stroke-width:0.8;stroke-linecap:square"
             id="path213" />
        </g>
        <g
           id="line2d_24">
          <g
             id="g218">
            <use
               xlink:href="#m3aad12751d"
               x="57.599998"
               y="55.635693"
               style="stroke:#000000;stroke-width:0.8"
               id="use216"
               width="100%"
               height="100%" />
          </g>
        </g>
        <g
           id="text_13">
          <!-- 120 -->
          <g
             transform="matrix(0.1,0,0,-0.1,31.5125,59.434911)"
             id="g227">
            <use
               xlink:href="#DejaVuSans-31"
               id="use221"
               x="0"
               y="0"
               width="100%"
               height="100%" />
            <use
               xlink:href="#DejaVuSans-32"
               x="63.623047"
               id="use223"
               y="0"
               width="100%"
               height="100%" />
            <use
               xlink:href="#DejaVuSans-30"
               x="127.24609"
               id="use225"
               y="0"
               width="100%"
               height="100%" />
          </g>
        </g>
      </g>
      <g
         id="text_14">
        <!-- Quadrature Points -->
        <g
           transform="matrix(0,-0.1,-0.1,0,25.432812,219.74362)"
           id="g280">
          <defs
             id="defs244">
            <path
               id="DejaVuSans-51"
               d="m 2522,4238 q -688,0 -1093,-513 -404,-512 -404,-1397 0,-881 404,-1394 405,-512 1093,-512 687,0 1089,512 402,513 402,1394 0,885 -402,1397 -402,513 -1089,513 z M 3406,84 4238,-825 h -763 l -691,747 q -103,-6 -158,-9 -54,-4 -104,-4 -984,0 -1574,658 -589,658 -589,1761 0,1106 589,1764 590,658 1574,658 981,0 1568,-658 588,-658 588,-1764 0,-812 -327,-1391 Q 4025,359 3406,84 Z"
               transform="scale(0.015625)" />
            <path
               id="DejaVuSans-75"
               d="m 544,1381 v 2119 h 575 V 1403 q 0,-497 193,-746 194,-248 582,-248 465,0 735,297 271,297 271,810 v 1984 h 575 V 0 H 2900 V 538 Q 2691,219 2414,64 2138,-91 1772,-91 1169,-91 856,284 544,659 544,1381 Z m 1447,2203 z"
               transform="scale(0.015625)" />
            <path
               id="DejaVuSans-61"
               d="m 2194,1759 q -697,0 -966,-159 -269,-159 -269,-544 0,-306 202,-486 202,-179 548,-179 479,0 768,339 289,339 289,901 v 128 z m 1147,238 V 0 H 2766 V 531 Q 2569,213 2275,61 1981,-91 1556,-91 q -537,0 -855,302 -317,302 -317,808 0,590 395,890 396,300 1180,300 h 807 v 57 q 0,397 -261,614 -261,217 -733,217 -300,0 -585,-72 -284,-72 -546,-216 v 532 q 315,122 612,182 297,61 578,61 760,0 1135,-394 375,-393 375,-1193 z"
               transform="scale(0.015625)" />
            <path
               id="DejaVuSans-64"
               d="m 2906,2969 v 1894 h 575 V 0 H 2906 V 525 Q 2725,213 2448,61 2172,-91 1784,-91 1150,-91 751,415 353,922 353,1747 q 0,825 398,1331 399,506 1033,506 388,0 664,-152 277,-151 458,-463 z M 947,1747 q 0,-634 261,-995 261,-361 717,-361 456,0 718,361 263,361 263,995 0,634 -263,995 -262,361 -718,361 -456,0 -717,-361 -261,-361 -261,-995 z"
               transform="scale(0.015625)" />
            <path
               id="DejaVuSans-72"
               d="m 2631,2963 q -97,56 -211,82 -114,27 -251,27 -488,0 -749,-317 -261,-317 -261,-911 V 0 H 581 v 3500 h 578 v -544 q 182,319 472,473 291,155 707,155 59,0 131,-8 72,-7 159,-23 z"
               transform="scale(0.015625)" />
            <path
               id="DejaVuSans-74"
               d="M 1172,4494 V 3500 H 2356 V 3053 H 1172 V 1153 q 0,-428 117,-550 117,-122 477,-122 h 590 V 0 H 1766 Q 1100,0 847,248 594,497 594,1153 V 3053 H 172 v 447 h 422 v 994 z"
               transform="scale(0.015625)" />
            <path
               id="DejaVuSans-65"
               d="M 3597,1894 V 1613 H 953 q 38,-594 358,-905 320,-311 892,-311 331,0 642,81 311,81 618,244 V 178 Q 3153,47 2828,-22 2503,-91 2169,-91 1331,-91 842,396 353,884 353,1716 q 0,859 464,1363 464,505 1252,505 706,0 1117,-455 411,-454 411,-1235 z m -575,169 q -6,471 -264,752 -258,282 -683,282 -481,0 -770,-272 -289,-272 -333,-766 z"
               transform="scale(0.015625)" />
            <path
               id="DejaVuSans-20"
               transform="scale(0.015625)"
               d="" />
            <path
               id="DejaVuSans-50"
               d="M 1259,4147 V 2394 h 794 q 441,0 681,228 241,228 241,650 0,419 -241,647 -240,228 -681,228 z m -631,519 h 1425 q 785,0 1186,-355 402,-355 402,-1039 0,-691 -402,-1044 -401,-353 -1186,-353 H 1259 V 0 H 628 Z"
               transform="scale(0.015625)" />
            <path
               id="DejaVuSans-6f"
               d="m 1959,3097 q -462,0 -731,-361 -269,-361 -269,-989 0,-628 267,-989 268,-361 733,-361 460,0 728,362 269,363 269,988 0,622 -269,986 -268,364 -728,364 z m 0,487 q 750,0 1178,-488 429,-487 429,-1349 Q 3566,888 3137,398 2709,-91 1959,-91 1206,-91 779,398 353,888 353,1747 q 0,862 426,1349 427,488 1180,488 z"
               transform="scale(0.015625)" />
            <path
               id="DejaVuSans-69"
               d="m 603,3500 h 575 V 0 H 603 Z m 0,1363 h 575 V 4134 H 603 Z"
               transform="scale(0.015625)" />
            <path
               id="DejaVuSans-6e"
               d="M 3513,2113 V 0 h -575 v 2094 q 0,497 -194,743 -194,247 -581,247 -466,0 -735,-297 -269,-296 -269,-809 V 0 H 581 v 3500 h 578 v -544 q 207,316 486,472 280,156 646,156 603,0 912,-373 310,-373 310,-1098 z"
               transform="scale(0.015625)" />
            <path
               id="DejaVuSans-73"
               d="m 2834,3397 v -544 q -243,125 -506,187 -262,63 -544,63 -428,0 -642,-131 -214,-131 -214,-394 0,-200 153,-314 153,-114 616,-217 l 197,-44 q 612,-131 870,-370 258,-239 258,-667 0,-488 -386,-773 Q 2250,-91 1575,-91 1294,-91 989,-36 684,19 347,128 v 594 q 319,-166 628,-249 309,-82 613,-82 406,0 624,139 219,139 219,392 0,234 -158,359 -157,125 -692,241 l -200,47 q -534,112 -772,345 -237,233 -237,639 0,494 350,762 350,269 994,269 318,0 599,-47 282,-46 519,-140 z"
               transform="scale(0.015625)" />
          </defs>
          <use
             xlink:href="#DejaVuSans-51"
             id="use246"
             x="0"
             y="0"
             width="100%"
             height="100%" />
          <use
             xlink:href="#DejaVuSans-75"
             x="78.710938"
             id="use248"
             y="0"
             width="100%"
             height="100%" />
          <use
             xlink:href="#DejaVuSans-61"
             x="142.08984"
             id="use250"
             y="0"
             width="100%"
             height="100%" />
          <use
             xlink:href="#DejaVuSans-64"
             x="203.36914"
             id="use252"
             y="0"
             width="100%"
             height="100%" />
          <use
             xlink:href="#DejaVuSans-72"
             x="266.8457"
             id="use254"
             y="0"
             width="100%"
             height="100%" />
          <use
             xlink:href="#DejaVuSans-61"
             x="307.95898"
             id="use256"
             y="0"
             width="100%"
             height="100%" />
          <use
             xlink:href="#DejaVuSans-74"
             x="369.23828"
             id="use258"
             y="0"
             width="100%"
             height="100%" />
          <use
             xlink:href="#DejaVuSans-75"
             x="408.44727"
             id="use260"
             y="0"
             width="100%"
             height="100%" />
          <use
             xlink:href="#DejaVuSans-72"
             x="471.82617"
             id="use262"
             y="0"
             width="100%"
             height="100%" />
          <use
             xlink:href="#DejaVuSans-65"
             x="510.68945"
             id="use264"
             y="0"
             width="100%"
             height="100%" />
          <use
             xlink:href="#DejaVuSans-20"
             x="572.21289"
             id="use266"
             y="0"
             width="100%"
             height="100%" />
          <use
             xlink:href="#DejaVuSans-50"
             x="604"
             id="use268"
             y="0"
             width="100%"
             height="100%" />
          <use
             xlink:href="#DejaVuSans-6f"
             x="660.67773"
             id="use270"
             y="0"
             width="100%"
             height="100%" />
          <use
             xlink:href="#DejaVuSans-69"
             x="721.85938"
             id="use272"
             y="0"
             width="100%"
             height="100%" />
          <use
             xlink:href="#DejaVuSans-6e"
             x="749.64258"
             id="use274"
             y="0"
             width="100%"
             height="100%" />
          <use
             xlink:href="#DejaVuSans-74"
             x="813.02148"
             id="use276"
             y="0"
             width="100%"
             height="100%" />
          <use
             xlink:href="#DejaVuSans-73"
             x="852.23047"
             id="use278"
             y="0"
             width="100%"
             height="100%" />
        </g>
      </g>
    </g>
    <g
       id="line2d_25">
      <path
         d="m 73.832727,295.488 36.072733,-10.33846 36.07272,-14.47385 36.07273,-18.60923 36.07273,-22.74461 36.07272,-26.88 36.07273,-31.01539 36.07273,-35.15077 L 362.41454,96.989538 398.48727,53.568"
         clip-path="url(#pa0e5cfde28)"
         style="fill:none;stroke:#1f77b4;stroke-width:1.5;stroke-linecap:square"
         id="path284" />
    </g>
    <g
       id="patch_3">
      <path
         d="M 57.6,307.584 V 41.472"
         style="fill:none;stroke:#000000;stroke-width:0.8;stroke-linecap:square;stroke-linejoin:miter"
         id="path287" />
    </g>
    <g
       id="patch_4">
      <path
         d="M 414.72,307.584 V 41.472"
         style="fill:none;stroke:#000000;stroke-width:0.8;stroke-linecap:square;stroke-linejoin:miter"
         id="path290" />
    </g>
    <g
       id="patch_5">
      <path
         d="M 57.6,307.584 H 414.72"
         style="fill:none;stroke:#000000;stroke-width:0.8;stroke-linecap:square;stroke-linejoin:miter"
         id="path293" />
    </g>
    <g
       id="patch_6">
      <path
         d="M 57.6,41.472 H 414.72"
         style="fill:none;stroke:#000000;stroke-width:0.8;stroke-linecap:square;stroke-linejoin:miter"
         id="path296" />
    </g>
  </g>
  <defs
     id="defs304">
    <clipPath
       id="pa0e5cfde28">
      <rect
         x="57.599998"
         y="41.472"
         width="357.12"
         height="266.112"
         id="rect301" />
    </clipPath>
  </defs>
</svg>
