<?xml version="1.0" encoding="UTF-8" standalone="no"?>
<!-- Created with Inkscape (http://www.inkscape.org/) -->

<svg
   version="1.1"
   id="svg2"
   width="2648"
   height="1859"
   viewBox="0 0 2648 1859"
   sodipodi:docname="background_titlepage.svg"
   inkscape:version="1.1.2 (0a00cf5339, 2022-02-04)"
   xmlns:inkscape="http://www.inkscape.org/namespaces/inkscape"
   xmlns:sodipodi="http://sodipodi.sourceforge.net/DTD/sodipodi-0.dtd"
   xmlns="http://www.w3.org/2000/svg"
   xmlns:svg="http://www.w3.org/2000/svg">
  <defs
     id="defs6" />
  <sodipodi:namedview
     id="namedview4"
     pagecolor="#ffffff"
     bordercolor="#666666"
     borderopacity="1.0"
     inkscape:pageshadow="2"
     inkscape:pageopacity="0.0"
     inkscape:pagecheckerboard="0"
     showgrid="false"
     inkscape:zoom="0.23887201"
     inkscape:cx="1046.5856"
     inkscape:cy="1153.3373"
     inkscape:window-width="1707"
     inkscape:window-height="892"
     inkscape:window-x="0"
     inkscape:window-y="0"
     inkscape:window-maximized="1"
     inkscape:current-layer="layer1" />
  <g
     inkscape:groupmode="layer"
     id="layer1"
     inkscape:label="Image 1">
    <path
       style="fill:#eaf4fa;fill-opacity:1"
       d="m 510.3104,1858.3571 c 0.36242,-0.4125 56.02575,-56.1 123.69629,-123.75 l 123.03735,-123 -3.98019,-25.5 c -3.62163,-23.2028 -28.70509,-183.2256 -44.57494,-284.371 -3.52699,-22.479 -6.6112,-41.0694 -6.85379,-41.312 -0.35397,-0.354 -427.06801,23.0188 -649.150342,35.5565 -26.95,1.5215 -49.5624996,2.5742 -50.2499996,2.3394 -1.61829797,-0.5527 -1.61829797,-3.142 0,-3.7294 1.005947,-0.3651 234.7329316,-13.4358 656.0614416,-36.689 22.44629,-1.2388 41.25473,-2.5264 41.79652,-2.8612 1.11541,-0.6894 -65.66818,-428.86341 -67.12054,-430.33451 -0.52792,-0.5347 -128.05374,2.2056 -313.59641,6.7384 -278.009412,6.7919 -312.9805166,7.819 -315.1746386,9.2567 -2.043487,1.3389 -2.615687,1.3839 -3.32685497,0.2616 -0.472391,-0.7455 -0.865783,-1.8859 -0.874204996797,-2.5341 C -0.01827857,837.01439 2.7360254,834.10709 4.0940394,834.10709 c 0.531522,0 56.5950616,-46.9125 124.5856506,-104.25 67.99058,-57.3375 192.73605,-162.5342 277.21216,-233.77044 93.27352,-78.65484 153.59293,-130.18912 153.59293,-131.22312 0,-0.96439 -42.92621,-42.12004 -99,-94.91656 C 224.00771,47.290952 176.09849,2.1001025 175.50075,1.1329425 c -0.36879,-0.59673004 0.41262,-1.02585004 1.86801,-1.02585004 1.65238,0 4.631,1.95259004 8.77144,5.75000004 3.44818,3.1625 87.28633,81.9799695 186.307,175.1499275 99.02067,93.16995 181.49334,170.76419 183.2726,172.43164 1.77926,1.66745 3.50218,2.76456 3.82871,2.43803 0.32653,-0.32653 -4.4084,-32.47077 -10.52206,-71.43164 C 517.32995,82.450952 504.98478,3.2052525 504.98478,1.7341825 c 0,-2.89247 3.78228,-1.92406004 4.38568,1.12291 0.29952,1.5125 9.79189,61.9249995 21.09415,134.2499975 11.30227,72.325 23.85106,152.5606 27.88621,178.30134 4.03515,25.74074 7.74104,47.17173 8.2353,47.62442 0.49426,0.45269 48.75827,16.19996 107.25335,34.99394 58.49508,18.79398 191.02008,61.41652 294.5,94.71676 205.63783,66.17504 231.65223,74.51259 233.14533,74.72278 2.0094,0.28285 6.8603,12.22865 -81.7669,-201.35924 -22.384,-53.9445 -60.4251,-145.63547 -130.65032,-314.908048 -11.04555,-26.62443 -20.0828,-49.0119295 -20.0828,-49.7499995 0,-0.73807004 0.82281,-1.34195004 1.82846,-1.34195004 1.45757,0 4.58362,6.64312004 15.41113,32.74999954 7.47051,18.0125 58.65403,141.424998 113.74113,274.249998 104.3581,251.62628 104.7621,252.59053 105.5071,251.84556 0.3961,-0.39611 23.5108,-229.6792 48.0723,-476.845558 4.1264,-41.525 7.7339,-76.9624995 8.0166,-78.7499995 0.3768,-2.38293004 1.0354,-3.25000004 2.4686,-3.25000004 1.3695,0 1.9455,0.67359 1.924,2.25000004 -0.017,1.2375 -12.7807,129.1499975 -28.364,284.2499975 -20.9141,208.15584 -28.0417,282.30973 -27.2194,283.18281 0.6128,0.65055 21.3641,7.70415 46.1141,15.67468 334.2172,107.63181 622.2163,200.21031 627,201.55161 4.3013,1.2062 8.0931,1.528 13.3932,1.1367 l 7.3932,-0.5458 117.9488,-314 c 80.4094,-214.06339 118.0931,-315.59135 118.4019,-319 0.2491,-2.75 -0.1298,-7.11705 -0.8421,-9.70456 -1.1897,-4.32185 -6.7861,-10.29276 -68.795,-73.398598 -37.125,-37.78172 -67.8599,-69.3021695 -68.2997,-70.0454395 -0.5811,-0.98209004 -0.1432,-1.35140004 1.6025,-1.35140004 2.5454,0 16.3127,13.60828954 93.5813,92.49999954 20.47,20.899998 37.6452,38.149998 38.167,38.333328 0.5219,0.18334 0.9489,-0.35504 0.9489,-1.19639 0,-0.84135 -4.731,-28.89135 -10.5134,-62.333338 -12.6342,-73.0687395 -11.8189,-67.30359954 -9.5182,-67.30359954 0.9997,0 2.046,0.59506 2.3251,1.32235004 0.279,0.72728 5.7758,31.8897895 12.215,69.2499995 10.8133,62.739138 12.8784,72.374108 15.0472,70.205308 0.3318,-0.33181 11.9942,-30.90502 25.9164,-67.940468 13.9222,-37.03546 25.8836,-68.5746895 26.581,-70.0871895 1.4384,-3.11966004 5.5274,-3.99141 4.6906,-1 -0.2692,0.9625 -12.4802,33.6829795 -27.1355,72.7121895 l -26.6461,70.962188 8.8598,9.03781 c 50.4504,51.46438 287.9864,293.72614 349.0926,356.03781 43.1488,44 89.8448,91.5112 103.7689,105.5804 20.6109,20.8256 25.3166,26.0858 25.3166,28.2997 0,2.0033 -0.3525,2.5087 -1.339,1.9196 -0.7365,-0.4398 -49.6852,-50.0747 -108.7748,-110.2997 -59.0897,-60.225 -168.1389,-171.375 -242.3316,-247 -74.1927,-75.625 -135.2662,-137.64908 -135.719,-137.83128 -3.2995,-1.32771 -2.2229,6.71219 11.6991,87.36551 7.8766,45.63117 26.0905,151.14077 40.4753,234.46577 14.3848,83.325 32.1157,186.051 39.402,228.2799 7.2863,42.229 13.6619,77.1424 14.1679,77.5855 0.5061,0.4431 78.0951,-1.0975 172.4201,-3.4235 157.1558,-3.8754 205.3565,-4.9315 208.75,-4.5737 2.1528,0.227 1.3616,3.069 -1,3.5921 -1.2375,0.2741 -59.4,1.8721 -129.25,3.5512 -69.85,1.679 -153.1,3.7075 -185,4.5078 -31.9,0.8002 -59.0606,1.4607 -60.357,1.4678 -1.6114,0.01 -2.1863,0.4577 -1.8174,1.419 0.2967,0.7733 84.3885,105.9608 186.8706,233.75001 102.4821,127.7891 187.595,234.004 189.1397,236.0331 1.8925,2.4858 2.7036,4.606 2.4864,6.5 -0.3791,3.3058 21.8546,30.7195 -240.3223,-296.31391 -110.8882,-138.3194 -144.7084,-180.3858 -145.3316,-180.7667 -0.3676,-0.2248 -77.7164,1.4668 -171.8861,3.7591 -125.1888,3.0472 -171.5343,4.4843 -172.3956,5.3456 -0.8372,0.8372 -7.4747,139.9886 -22.9429,480.98231 -11.9707,263.8924 -22.2435,489.7044 -22.8285,501.8044 -0.585,12.1 -1.5569,34.15 -2.1597,49 -1.3378,32.9563 -1.4049,33.5 -4.1363,33.5 -2.0423,0 -2.0751,-0.2802 -1.4304,-12.25 0.7171,-13.3134 1.0807,-21.2276 5.5707,-121.25 1.6542,-36.85 3.4728,-76.45 4.0414,-88 4.4675,-90.7484 37.9682,-838.13791 37.6102,-839.07081 -0.252,-0.6567 -3.2636,-2.1413 -6.6925,-3.2993 l -6.2344,-2.1054 -183.0922,4.4761 c -224.1775,5.4805 -291.9772,7.1429 -350.0921,8.584 -24.75,0.6137 -45.324,1.4172 -45.72,1.7855 -0.3959,0.3684 96.9247,236.01081 216.2681,523.64991 119.3433,287.639 217.2536,523.9925 217.5783,525.23 0.8979,3.4218 -2.963,3.0015 -4.5566,-0.4961 -1.225,-2.6887 -25.4906,-61.1236 -121.5686,-292.7539 -26.2355,-63.25 -56.384,-135.925 -66.9967,-161.5 -10.6127,-25.575 -35.8146,-86.325 -56.0042,-135 -20.1896,-48.675 -51.4582,-124.05 -69.4857,-167.5 -18.0274,-43.45 -52.4528,-126.47501 -76.5007,-184.50001 -24.0479,-58.025 -44.2388,-106.0007 -44.8687,-106.6126 -1.2737,-1.2375 -115.5245,1.1996 -116.8879,2.4933 -0.6112,0.5799 -25.4629,244.77021 -39.3978,387.11931 l -3.5731,36.5 41.1695,191.5 c 84.3845,392.5146 92.0005,427.9755 92.4509,430.4593 0.7291,4.0203 -2.9736,3.4086 -4.2933,-0.7093 -0.5729,-1.7875 -17.082,-77.95 -36.687,-169.25 -85.6235,-398.7467 -96.0608,-446.8764 -96.9679,-447.1488 -0.5273,-0.1583 -85.4915,83.9604 -188.80944,186.9305 l -187.85083,187.2183 19.10083,121.615 c 10.50545,66.8882 19.10082,122.1257 19.10082,122.75 0,2.1877 -3.94713,1.2014 -4.46212,-1.115 -0.27512,-1.2375 -8.63419,-54.45 -18.5757,-118.25 -9.94152,-63.8 -18.30532,-116.7875 -18.58622,-117.75 -0.2809,-0.9625 -0.94342,-1.75 -1.47225,-1.75 -0.52883,0 -55.11189,54 -121.29568,120 -102.469,102.1845 -120.75039,120 -123.13776,120 -1.54198,0 -2.50708,-0.3375 -2.14465,-0.75 z m 438.73724,-437.4499 c 101.40386,-101.035 184.12116,-183.9495 183.81616,-184.2545 -0.7587,-0.7586 -423.71571,22.7354 -425.13941,23.6153 -0.81734,0.5052 1.58549,18.0854 8.54524,62.5209 5.32527,34 17.34629,110.8682 26.71337,170.8182 9.36708,59.95 17.26221,110.0291 17.54473,111.2869 0.4481,1.995 0.74567,2.1226 2.33147,1 0.99979,-0.7078 84.78459,-83.9519 186.18844,-184.9868 z m -16.22443,-178.2614 c 112.38619,-6.2236 204.69679,-11.7033 205.13469,-12.1771 0.438,-0.4739 6.2761,-55.7616 12.9736,-122.8616 6.6975,-67.1 15.986,-159.80001 20.6411,-206.00001 4.6552,-46.2 8.3398,-85.575 8.1881,-87.5 l -0.2759,-3.5 -12.5,0.2835 c -41.6838,0.9455 -192.21585,4.5495 -258.50002,6.1889 -42.9,1.061 -120.3,2.8914 -172,4.0675 -51.7,1.1762 -94.95679,2.5133 -96.12621,2.9714 -1.52423,0.5972 -2.0126,1.4921 -1.72495,3.1609 0.51231,2.972 55.83893,356.54071 61.93936,395.82781 2.51938,16.225 4.77054,30.1067 5.00257,30.8483 0.3377,1.0792 2.66511,1.2143 11.66555,0.6771 6.18402,-0.3692 103.19597,-5.7632 215.58211,-11.9867 z M 331.31615,826.69809 c 164.90726,-4.0446 300.18107,-7.7446 300.60847,-8.2224 0.42741,-0.4777 -7.25157,-51.9436 -17.06438,-114.3686 -9.81282,-62.425 -25.52969,-162.55 -34.92637,-222.5 -9.39668,-59.95 -17.46664,-109.38981 -17.93322,-109.86624 -0.47208,-0.48203 -40.24922,32.35835 -89.68211,74.04239 -48.85857,41.19975 -160.83376,135.61497 -248.83376,209.81155 -202.537332,170.7681 -210.500002,177.5034 -210.500002,178.0552 0,0.8161 14.637575,0.4965 318.331372,-6.9519 z m 578.16863,-14.1321 c 214.70352,-5.2233 270.20482,-6.8356 271.00002,-7.8725 1.1428,-1.4901 24.1726,-230.24711 23.2706,-231.14912 -0.3248,-0.32481 -11.5436,-4.11697 -24.9306,-8.42702 -13.387,-4.31005 -127.39,-40.98899 -253.34002,-81.50875 -125.95,-40.51976 -257.52312,-82.85887 -292.3847,-94.0869 -34.86159,-11.22804 -63.99909,-20.41461 -64.75,-20.41461 -0.75092,0 -1.3653,0.32419 -1.3653,0.72041 0,0.39623 6.28441,40.78373 13.96535,89.75 7.68094,48.96628 23.44863,149.51369 35.03931,223.43869 11.59068,73.925 21.30783,134.7875 21.59367,135.25 0.28584,0.4625 0.83065,0.8471 1.21069,0.8546 0.38004,0.01 122.19098,-2.9421 270.69098,-6.5548 z m 342.21102,-8.4816 c 22.1161,-0.5375 42.0286,-0.9773 44.25,-0.9773 2.4884,0 4.039,-0.4635 4.039,-1.2074 0,-0.664 -10.5518,-26.6515 -23.4485,-57.75 -12.8967,-31.0984 -33.1443,-79.9177 -44.9946,-108.4872 -11.8504,-28.5695 -21.9424,-52.34087 -22.4267,-52.82519 -0.5074,-0.50743 -1.1325,0.9522 -1.4752,3.44461 -1.8683,13.58891 -21.7184,217.21768 -21.2849,218.34738 0.4147,1.0807 3.0502,1.2649 12.826,0.8962 6.7671,-0.2551 30.3989,-0.9036 52.5149,-1.4411 z m 351.2113,-8.5448 c 146.5323,-3.5441 266.6448,-6.6663 266.9167,-6.9381 0.2719,-0.2719 0.3068,-0.6706 0.078,-0.8861 -0.2292,-0.2154 -88.1667,-28.6208 -195.4167,-63.123 -107.25,-34.5023 -254.85,-81.994 -328,-105.5371 -73.15,-23.54307 -133.2985,-42.50019 -133.6633,-42.1269 -0.512,0.52398 84.8781,208.26 91.6406,222.9422 l 1.5032,3.2634 15.2597,-0.5753 c 8.3929,-0.3164 135.1498,-3.475 281.6821,-7.0191 z m 494.5777,-12.0326 c 82.5,-1.974 150.3866,-3.9557 150.8591,-4.4036 0.4738,-0.4492 -13.8028,-85.7363 -31.831,-190.15538 -17.9795,-104.13751 -41.656,-241.31592 -52.6144,-304.84092 -10.9584,-63.525 -20.1576,-116.12691 -20.4426,-116.89313 -0.285,-0.76622 -0.7289,-1.18237 -0.9865,-0.92478 -0.5333,0.53331 -11.2417,28.99798 -139.5588,370.9707 -51.1092,136.20901 -92.9258,248.43341 -92.9258,249.38761 0,1.6076 1.375,1.6876 18.75,1.0918 10.3125,-0.3537 86.25,-2.2582 168.75,-4.2323 z"
       id="path1139" />
  </g>
</svg>
